<?xml version="1.0" encoding="UTF-8"?>
<!DOCTYPE svg PUBLIC "-//W3C//DTD SVG 1.1//EN" "http://www.w3.org/Graphics/SVG/1.1/DTD/svg11.dtd">
<!-- Creator: CorelDRAW 2018 (64-Bit) -->
<?xml-stylesheet href="fb-ic.css" type="text/css"?>
<svg xmlns="http://www.w3.org/2000/svg" xml:space="preserve" width="10mm" height="10mm" version="1.1" style="shape-rendering:geometricPrecision; text-rendering:geometricPrecision; image-rendering:optimizeQuality; fill-rule:evenodd; clip-rule:evenodd"
viewBox="0 0 153.73 153.73"
 xmlns:xlink="http://www.w3.org/1999/xlink">
 <g id="Layer_x0020_1">
  <metadata id="CorelCorpID_0Corel-Layer"/>
  <path class="fil0" d="M76.86 0c-42.38,0 -76.86,34.48 -76.86,76.86 0,42.38 34.48,76.86 76.86,76.86 42.38,0 76.86,-34.48 76.86,-76.86 0,-42.38 -34.48,-76.86 -76.86,-76.86zm19.11 79.57l-12.5 0c0,19.98 0,44.58 0,44.58l-18.53 0c0,0 0,-24.36 0,-44.58l-8.81 0 0 -15.75 8.81 0 0 -10.19c0,-7.3 3.47,-18.7 18.7,-18.7l13.72 0.05 0 15.29c0,0 -8.34,0 -9.97,0 -1.62,0 -3.93,0.81 -3.93,4.29l0 9.26 14.12 0 -1.62 15.75z"/>
 </g>
</svg>
