<?xml version="1.0" encoding="UTF-8"?>
<!DOCTYPE svg PUBLIC "-//W3C//DTD SVG 1.1//EN" "http://www.w3.org/Graphics/SVG/1.1/DTD/svg11.dtd">
<!-- Creator: CorelDRAW 2018 (64-Bit) -->
<?xml-stylesheet href="instagram-ic.css" type="text/css"?>
<svg xmlns="http://www.w3.org/2000/svg" xml:space="preserve" width="10.0869mm" height="10mm" version="1.1" style="shape-rendering:geometricPrecision; text-rendering:geometricPrecision; image-rendering:optimizeQuality; fill-rule:evenodd; clip-rule:evenodd"
viewBox="0 0 1840.22 1824.36"
 xmlns:xlink="http://www.w3.org/1999/xlink">
 <g id="Layer_x0020_1">
  <metadata id="CorelCorpID_0Corel-Layer"/>
  <path class="fil0" d="M531.13 0l778 0c292.17,0 531.09,235.96 531.09,524.23l0 775.92c0,288.32 -238.92,524.21 -531.07,524.21l-778.02 -0.02c-292.17,0 -531.13,-235.87 -531.13,-524.21l0 -775.92c0,-288.25 238.95,-524.21 531.13,-524.21zm384.03 419.62c283.91,0 514.31,230.38 514.31,514.31 0,283.94 -230.4,514.29 -514.31,514.29 -283.98,0 -514.34,-230.34 -514.34,-514.29 0,-283.93 230.36,-514.31 514.34,-514.31zm0 173.72c188,0 340.59,152.55 340.59,340.59 0,188.04 -152.59,340.63 -340.59,340.63 -188.07,0 -340.63,-152.59 -340.63,-340.63 0,-188.04 152.55,-340.59 340.63,-340.59zm497.56 -244.99c46.12,0 83.52,37.4 83.52,83.46 0,46.12 -37.4,83.52 -83.52,83.52 -46.08,0 -83.46,-37.4 -83.46,-83.52 0,-46.08 37.4,-83.46 83.46,-83.46zm-818.01 -199.31l650.91 0c244.43,0 444.32,198.89 444.32,441.97l0 654.18c0,243.06 -199.9,441.93 -444.32,441.93l-650.91 0.02c-244.43,0 -444.36,-198.87 -444.36,-441.93l0 -654.22c0,-243.06 199.93,-441.95 444.36,-441.95z"/>
 </g>
</svg>
