<?xml version="1.0" encoding="UTF-8"?>
<!DOCTYPE svg PUBLIC "-//W3C//DTD SVG 1.1//EN" "http://www.w3.org/Graphics/SVG/1.1/DTD/svg11.dtd">
<!-- Creator: CorelDRAW 2018 (64-Bit) -->
<?xml-stylesheet href="wa-ic.css" type="text/css"?>
<svg xmlns="http://www.w3.org/2000/svg" xml:space="preserve" width="9.9998mm" height="10mm" version="1.1" style="shape-rendering:geometricPrecision; text-rendering:geometricPrecision; image-rendering:optimizeQuality; fill-rule:evenodd; clip-rule:evenodd"
viewBox="0 0 189.43 189.43"
 xmlns:xlink="http://www.w3.org/1999/xlink">
 <g id="Layer_x0020_1">
  <metadata id="CorelCorpID_0Corel-Layer"/>
  <path class="fil0" d="M179.01 130.29c-12.94,0 -25.47,-2.1 -37.15,-5.9 -3.68,-1.27 -7.79,-0.31 -10.63,2.53l-16.52 20.73c-29.78,-14.21 -57.67,-41.04 -72.51,-71.88l20.52 -17.47c2.84,-2.95 3.68,-7.05 2.53,-10.73 -3.89,-11.68 -5.89,-24.2 -5.89,-37.15 0,-5.68 -4.74,-10.42 -10.42,-10.42l-36.41 0c-5.68,-0 -12.53,2.52 -12.53,10.42 0,97.77 81.35,179.01 179.01,179.01 7.47,0 10.42,-6.63 10.42,-12.42l0 -36.31c0,-5.68 -4.74,-10.42 -10.42,-10.42l0 -0z"/>
 </g>
</svg>
